<svg width="24" height="24" viewBox="0 0 24 24" fill="none" xmlns="http://www.w3.org/2000/svg">
  <!-- Document outline with thinner border -->
  <rect x="2" y="2" width="20" height="20" stroke="currentColor" stroke-width="1" fill="none" rx="1"/>
  
  <!-- Two-column layout -->
  <!-- Left column - Profile -->
  <rect x="3" y="3" width="8" height="18" stroke="currentColor" stroke-width="0.6" fill="none"/>
  <circle cx="7" cy="6" r="1.5" stroke="currentColor" stroke-width="0.6" fill="none"/>
  <path d="M6.5 6.5C6.5 6.5 7 7 7.5 7C8 7 8.5 6.5 8.5 6.5" stroke="currentColor" stroke-width="0.4" stroke-linecap="round"/>
  <path d="M7.5 7V7.5" stroke="currentColor" stroke-width="0.4" stroke-linecap="round"/>
  
  <!-- Contact info -->
  <rect x="4" y="9" width="6" height="0.6" stroke="currentColor" stroke-width="0.4" fill="none"/>
  <rect x="4" y="10.5" width="6" height="0.6" stroke="currentColor" stroke-width="0.4" fill="none"/>
  <rect x="4" y="12" width="6" height="0.6" stroke="currentColor" stroke-width="0.4" fill="none"/>
  
  <!-- Right column - Content -->
  <rect x="12" y="3" width="9" height="18" stroke="currentColor" stroke-width="0.6" fill="none"/>
  <text x="16.5" y="6.5" text-anchor="middle" font-family="Arial, sans-serif" font-size="3.5" font-weight="bold" fill="currentColor">CV</text>
  
  <!-- Content lines -->
  <line x1="13" y1="8" x2="20" y2="8" stroke="currentColor" stroke-width="0.4"/>
  <line x1="13" y1="9.5" x2="19" y2="9.5" stroke="currentColor" stroke-width="0.4"/>
  <line x1="13" y1="11" x2="20" y2="11" stroke="currentColor" stroke-width="0.4"/>
  <line x1="13" y1="12.5" x2="18" y2="12.5" stroke="currentColor" stroke-width="0.4"/>
  <line x1="13" y1="14" x2="20" y2="14" stroke="currentColor" stroke-width="0.4"/>
  <line x1="13" y1="15.5" x2="19" y2="15.5" stroke="currentColor" stroke-width="0.4"/>
  <line x1="13" y1="17" x2="17" y2="17" stroke="currentColor" stroke-width="0.4"/>
  <line x1="13" y1="18.5" x2="20" y2="18.5" stroke="currentColor" stroke-width="0.4"/>
</svg>
