<svg width="24" height="24" viewBox="0 0 24 24" fill="none" xmlns="http://www.w3.org/2000/svg">
  <!-- Document outline -->
  <rect x="2" y="2" width="20" height="20" stroke="currentColor" stroke-width="1.5" fill="none" rx="1"/>
  
  <!-- Left column -->
  <!-- Profile circle -->
  <circle cx="7" cy="6" r="2" stroke="currentColor" stroke-width="1" fill="none"/>
  <!-- Person icon inside circle -->
  <path d="M6 7.5C6 7.5 6.5 8 7 8C7.5 8 8 7.5 8 7.5" stroke="currentColor" stroke-width="0.8" stroke-linecap="round"/>
  <path d="M7 8V9" stroke="currentColor" stroke-width="0.8" stroke-linecap="round"/>
  
  <!-- Contact info boxes -->
  <rect x="5" y="10" width="4" height="0.8" stroke="currentColor" stroke-width="0.6" fill="none"/>
  <rect x="5" y="11.5" width="4" height="0.8" stroke="currentColor" stroke-width="0.6" fill="none"/>
  <rect x="5" y="13" width="4" height="0.8" stroke="currentColor" stroke-width="0.6" fill="none"/>
  
  <!-- Right column -->
  <!-- CV text -->
  <text x="15" y="7" text-anchor="middle" font-family="Arial, sans-serif" font-size="4" font-weight="bold" fill="currentColor">CV</text>
  
  <!-- Text lines -->
  <line x1="12" y1="9" x2="19" y2="9" stroke="currentColor" stroke-width="0.6"/>
  <line x1="12" y1="10.5" x2="18" y2="10.5" stroke="currentColor" stroke-width="0.6"/>
  <line x1="12" y1="12" x2="19" y2="12" stroke="currentColor" stroke-width="0.6"/>
  <line x1="12" y1="13.5" x2="17" y2="13.5" stroke="currentColor" stroke-width="0.6"/>
  <line x1="12" y1="15" x2="19" y2="15" stroke="currentColor" stroke-width="0.6"/>
  <line x1="12" y1="16.5" x2="18" y2="16.5" stroke="currentColor" stroke-width="0.6"/>
  <line x1="12" y1="18" x2="17" y2="18" stroke="currentColor" stroke-width="0.6"/>
  <line x1="12" y1="19.5" x2="19" y2="19.5" stroke="currentColor" stroke-width="0.6"/>
</svg>